<svg xmlns="http://www.w3.org/2000/svg" xmlns:xlink="http://www.w3.org/1999/xlink" width="18" height="18" viewBox="0 0 18 18">
    <defs>
        <rect id="b" width="1100" height="1314" y="4" rx="12"/>
        <filter id="a" width="104.8%" height="104%" x="-2.4%" y="-1.6%" filterUnits="objectBoundingBox">
            <feMorphology in="SourceAlpha" operator="dilate" radius=".05" result="shadowSpreadOuter1"/>
            <feOffset dy="5" in="shadowSpreadOuter1" result="shadowOffsetOuter1"/>
            <feGaussianBlur in="shadowOffsetOuter1" result="shadowBlurOuter1" stdDeviation="8"/>
            <feComposite in="shadowBlurOuter1" in2="SourceAlpha" operator="out" result="shadowBlurOuter1"/>
            <feColorMatrix in="shadowBlurOuter1" values="0 0 0 0 0 0 0 0 0 0 0 0 0 0 0 0 0 0 0.0828234266 0"/>
        </filter>
    </defs>
    <g fill="none" fill-rule="evenodd">
        <path d="M-461-798h1920v4525H-461z"/>
        <g transform="translate(-50 -708)">
            <use filter="url(#a)" xlink:href="#b"/>
            <use stroke-opacity=".499" stroke-width=".1" xlink:href="#b"/>
        </g>
        <g stroke="#787982" transform="translate(-5 -5)">
            <g stroke-linejoin="round" stroke-width="1.3">
                <path d="M18.805 11.345H15.31l.506-2.247c.178-.72-.154-1.297-.709-1.619-.62-.36-1.063.27-1.063.27l-1.21 1.527c-.715.845-1.542 1.593-2.107 2.069H8.763a.93.93 0 0 0-.92.934v6.392c0 .52.418.944.93.944h9.332c.618 0 1.194-.524 1.284-1.2l.681-5.09c.142-1.057-.424-1.98-1.265-1.98zM10.683 11.39v8.225"/>
            </g>
            <circle cx="14" cy="14" r="14" stroke-width="1.2"/>
        </g>
    </g>
</svg>
