<svg xmlns="http://www.w3.org/2000/svg" width="12" height="12" viewBox="0 0 12 12">
    <g fill="none" fill-rule="evenodd" stroke-linejoin="round">
        <g stroke="#787983">
            <g>
                <g>
                    <g>
                        <g>
                            <g>
                                <path d="M7.308 2.651h-2.33l.338-1.498c.118-.48-.103-.865-.472-1.079-.414-.24-.71.18-.71.18L3.329 1.27c-.477.564-1.028 1.063-1.405 1.38H.613c-.337 0-.613.28-.613.623v4.26c0 .347.28.63.62.63H6.843c.412 0 .796-.35.856-.8l.454-3.393c.094-.704-.282-1.32-.844-1.32zM1.911 2.681L1.911 8.165" transform="translate(-235 -1023) translate(232 1020) translate(3 3) translate(1.895 1.579)"/>
                            </g>
                        </g>
                    </g>
                </g>
            </g>
        </g>
    </g>
</svg>
