<svg xmlns="http://www.w3.org/2000/svg" width="18" height="18" viewBox="0 0 18 18">
    <g fill="none" fill-rule="evenodd" stroke-linejoin="round">
        <g stroke="#787983" stroke-width="1.3">
            <g>
                <g>
                    <g>
                        <g>
                            <g>
                                <g>
                                    <g>
                                        <path d="M10.962 3.977H7.468l.506-2.248C8.151 1.01 7.82.433 7.265.111c-.62-.36-1.063.27-1.063.27l-1.21 1.526c-.715.846-1.542 1.594-2.107 2.07H.921c-.507 0-.921.42-.921.934v6.391c0 .52.42.945.931.945h9.332c.618 0 1.194-.525 1.284-1.2l.681-5.09c.141-1.057-.424-1.98-1.266-1.98zM2.841 4.022L2.841 12.247" transform="translate(-674 -1175) translate(536 342) translate(0 293) translate(30 35) translate(2 500) translate(101) translate(5 5) matrix(1 0 0 -1 2.842 16.105)"/>
                                    </g>
                                </g>
                            </g>
                        </g>
                    </g>
                </g>
            </g>
        </g>
    </g>
</svg>
